<svg width="100" height="100" viewBox="0 0 100 100" fill="" xmlns="http://www.w3.org/2000/svg">
<path d="M79.1667 45.8333H29.75L44.875 27.6667C45.5823 26.8158 45.9225 25.7188 45.8209 24.617C45.7194 23.5152 45.1843 22.4989 44.3334 21.7917C43.4825 21.0844 42.3854 20.7442 41.2837 20.8458C40.1819 20.9473 39.1656 21.4824 38.4584 22.3333L17.625 47.3333C17.4849 47.5322 17.3595 47.7411 17.25 47.9583C17.25 48.1667 17.25 48.2917 16.9584 48.5C16.7695 48.9778 16.6706 49.4863 16.6667 50C16.6706 50.5137 16.7695 51.0223 16.9584 51.5C16.9584 51.7083 16.9584 51.8333 17.25 52.0417C17.3595 52.2589 17.4849 52.4678 17.625 52.6667L38.4584 77.6667C38.8501 78.137 39.3407 78.5153 39.8952 78.7745C40.4497 79.0338 41.0546 79.1677 41.6667 79.1667C42.6402 79.1686 43.5837 78.8295 44.3334 78.2083C44.7553 77.8586 45.104 77.429 45.3597 76.9442C45.6153 76.4594 45.7728 75.929 45.8231 75.3832C45.8734 74.8375 45.8156 74.2872 45.6529 73.7638C45.4902 73.2405 45.2259 72.7544 44.875 72.3333L29.75 54.1667H79.1667C80.2718 54.1667 81.3316 53.7277 82.113 52.9463C82.8944 52.1649 83.3334 51.1051 83.3334 50C83.3334 48.8949 82.8944 47.8351 82.113 47.0537C81.3316 46.2723 80.2718 45.8333 79.1667 45.8333Z" fill=""/>
</svg>
