<svg width="29" height="29" viewBox="0 0 29 29" fill="" xmlns="http://www.w3.org/2000/svg">
<path d="M8.28571 0C8.42597 0 8.54734 0.0512463 8.64983 0.153739C8.75233 0.256231 8.80357 0.377604 8.80357 0.517857V24.3393C8.80357 24.5551 8.71187 24.7061 8.52846 24.7924L0.760603 28.9353C0.685082 28.9784 0.604167 29 0.517857 29C0.377604 29 0.256231 28.9488 0.153739 28.8463C0.0512463 28.7438 0 28.6224 0 28.4821V4.66071C0 4.44494 0.0917039 4.2939 0.275112 4.20759L8.04297 0.0647321C8.11849 0.0215774 8.1994 0 8.28571 0ZM28.4821 0C28.6224 0 28.7438 0.0512463 28.8463 0.153739C28.9488 0.256231 29 0.377604 29 0.517857V24.3393C29 24.5551 28.9083 24.7061 28.7249 24.7924L20.957 28.9353C20.8815 28.9784 20.8006 29 20.7143 29C20.574 29 20.4527 28.9488 20.3502 28.8463C20.2477 28.7438 20.1964 28.6224 20.1964 28.4821V4.66071C20.1964 4.44494 20.2881 4.2939 20.4715 4.20759L28.2394 0.0647321C28.3149 0.0215774 28.3958 0 28.4821 0ZM10.3571 0C10.4435 0 10.519 0.016183 10.5837 0.0485491L18.8694 4.19141C19.0636 4.29929 19.1607 4.45573 19.1607 4.66071V28.4821C19.1607 28.6224 19.1095 28.7438 19.007 28.8463C18.9045 28.9488 18.7831 29 18.6429 29C18.5565 29 18.481 28.9838 18.4163 28.9515L10.1306 24.8086C9.93638 24.7007 9.83929 24.5443 9.83929 24.3393V0.517857C9.83929 0.377604 9.89053 0.256231 9.99302 0.153739C10.0955 0.0512463 10.2169 0 10.3571 0Z" fill=""/>
</svg>
