<svg width="1024" height="1024" viewBox="0 0 1024 1024" fill="" xmlns="http://www.w3.org/2000/svg">
<path d="M946.5 505L534.6 93.4C531.634 90.4284 528.112 88.0709 524.234 86.4623C520.356 84.8538 516.198 84.0258 512 84.0258C507.802 84.0258 503.644 84.8538 499.766 86.4623C495.888 88.0709 492.366 90.4284 489.4 93.4L77.5 505C65.5 517 58.7 533.3 58.7 550.3C58.7 585.6 87.4 614.3 122.7 614.3H166.1V908C166.1 925.7 180.4 940 198.1 940H448V716H560V940H825.9C843.6 940 857.9 925.7 857.9 908V614.3H901.3C918.3 614.3 934.6 607.6 946.6 595.5C971.5 570.5 971.5 530 946.5 505V505Z" fill=""/>
</svg>
