<svg width="19" height="24" viewBox="0 0 19 24" fill="" xmlns="http://www.w3.org/2000/svg">
<g clip-path="url(#clip0_379_689)">
<path d="M13.713 0.429V0.413C13.713 0.185 13.898 0 14.126 0H14.142H14.141H18.005C18.239 0 18.45 0.098 18.6 0.254C18.6805 0.330768 18.7445 0.423104 18.7881 0.525392C18.8318 0.62768 18.8542 0.737782 18.854 0.849V4.73C18.854 4.83953 18.8105 4.94458 18.733 5.02204C18.6556 5.09949 18.5505 5.143 18.441 5.143H18.424H18.425H17.552C17.4425 5.143 17.3374 5.09949 17.26 5.02204C17.1825 4.94458 17.139 4.83953 17.139 4.73V4.713V4.714V2.92L13.735 6.335C14.8299 7.67207 15.4265 9.34784 15.423 11.076V11.146V11.142L15.424 11.242C15.4266 13.1164 14.7191 14.9222 13.444 16.296L13.448 16.291C12.206 17.7085 10.4745 18.6046 8.59999 18.8L8.56799 18.803V20.571H9.86999C10.098 20.571 10.283 20.756 10.283 20.984V21.001V21V21.873C10.283 21.9825 10.2395 22.0876 10.162 22.165C10.0846 22.2425 9.97952 22.286 9.86999 22.286H9.85299H9.85399H8.56799V23.588C8.56799 23.6975 8.52448 23.8026 8.44702 23.88C8.36957 23.9575 8.26452 24.001 8.15499 24.001H8.13799H8.13899H7.26599C7.15645 24.001 7.05141 23.9575 6.97395 23.88C6.8965 23.8026 6.85299 23.6975 6.85299 23.588V23.571V23.572V22.286H5.55099C5.44145 22.286 5.33641 22.2425 5.25895 22.165C5.1815 22.0876 5.13799 21.9825 5.13799 21.873V21.856V21.857V20.984C5.13799 20.756 5.32299 20.571 5.55099 20.571H5.56799H5.56699H6.85499V18.8C5.5384 18.6658 4.28097 18.1848 3.21099 17.406L3.23199 17.421C2.17094 16.6631 1.31856 15.6494 0.753989 14.474L0.733989 14.428C0.245252 13.4117 -0.00672921 12.2977 -0.0030112 11.17C-0.0030112 10.943 0.0069888 10.717 0.0269888 10.495L0.0249888 10.524C0.150138 8.73999 0.910838 7.05999 2.16899 5.789L2.16799 5.79C2.88515 5.04176 3.74651 4.44661 4.70006 4.04047C5.6536 3.63434 6.67956 3.42565 7.71599 3.427C8.48299 3.427 9.22399 3.539 9.92299 3.748L9.86899 3.734C10.8395 4.02409 11.7448 4.49915 12.535 5.133L12.52 5.121L15.935 1.719H14.125C14.0155 1.719 13.9104 1.67549 13.833 1.59804C13.7555 1.52058 13.712 1.41553 13.712 1.306V1.289V1.29L13.713 0.429ZM7.71299 17.143L7.79999 17.144C8.57476 17.145 9.34177 16.9897 10.0552 16.6874C10.7686 16.3852 11.4137 15.9422 11.952 15.385L11.953 15.383C12.5106 14.8447 12.954 14.1995 13.2565 13.4859C13.5591 12.7723 13.7147 12.0051 13.714 11.23L13.713 11.138V11.143L13.714 11.056C13.7149 10.2812 13.5597 9.51421 13.2574 8.80082C12.9552 8.08742 12.5122 7.44229 11.955 6.904L11.953 6.903C10.87 5.814 9.36999 5.141 7.71299 5.141C6.05599 5.141 4.55599 5.815 3.47299 6.903C2.90425 7.45209 2.45451 8.11228 2.15174 8.84256C1.84896 9.57283 1.69962 10.3576 1.71299 11.148V11.143L1.71199 11.23C1.71199 12.859 2.38599 14.331 3.47099 15.382L3.47299 15.383C4.0113 15.9406 4.65653 16.384 5.3701 16.6866C6.08367 16.9891 6.85092 17.1447 7.62599 17.144L7.71799 17.143H7.71299Z" fill=""/>
</g>
<defs>
<clipPath id="clip0_379_689">
<rect width="19" height="24" fill="white"/>
</clipPath>
</defs>
</svg>
