<svg width="100" height="100" viewBox="0 0 100 100" fill="" xmlns="http://www.w3.org/2000/svg">
<path d="M87.3578 3.125L63.9656 15.2344L42.2859 5.85938L12.6422 7.8125L3.125 91.0156L33.7734 88.4109L67.7906 96.875L96.875 86.3281L87.3578 3.125ZM84.7687 7.98281L93.4906 84.2313L68.3906 93.3328L68.2516 90.4047L90.3938 82.0453L82.8281 12.3687L64.9453 20.85L64.8234 18.3094L65.4031 18.0109L84.7687 7.98281M66.5859 55.3891C66.9328 54.6516 67.2734 53.6156 67.4359 52.1625C67.4359 52.1625 69.1578 52.2469 71.2766 56.8641C71.2766 56.8641 72.2016 56.7719 71.7406 53.7578C71.7406 53.7578 75.0484 52.425 73.2641 46.5641C73.2641 46.5641 76.0391 50.3859 75.1172 45.4172C75.1172 45.4172 78.1609 41.6859 74.525 39.2047C74.525 39.2047 74.65 36.4531 76.8359 36.8062C76.8359 36.8062 79.0203 31.125 77.9672 37.8703C77.9672 37.8703 78.0297 39.2047 79.4187 40.7094C79.4187 40.7094 80.0172 38.4922 78.9563 36.1016C78.9563 36.1016 81.1422 32.0109 80.9422 28.4656C80.9422 28.4656 73.8609 31.0922 65.9813 30.3078C65.9813 30.3078 66.3656 28.8422 65.2891 28.0187L65.0688 23.3859L65.2562 23.2969L80.8563 15.9L87.8688 80.4953L68.1359 87.9469L66.5859 55.3891M63.7141 27.8984C62.9 29.0594 60.6406 32.6297 62.0141 34.7672C62.0141 34.7672 61.3484 39.3969 60.4203 32.6438C60.4203 32.6438 58.9031 36.6297 56.85 35.7406C56.85 35.7406 56.2859 39.775 54.9937 37.0719C54.9937 37.0719 56.0516 37.5172 56.2844 36.275C56.2844 36.275 53.3016 33.0797 51.5188 37.9109C51.5188 37.9109 50.0625 38.4906 50.6266 40.7562C50.6266 40.7562 51.6484 38.8875 52.1797 41.7328C52.1797 41.7328 52.7438 41.2891 52.9797 37.6469C52.9797 37.6469 54.3953 36.9406 53.3016 39.8187C53.3016 39.8187 56.5453 39.8703 51.5188 42.7469C51.5188 42.7469 51.2406 42.7 51.0219 41.5969C51.0219 41.5969 50.2609 44.2531 48.7016 45.1953C48.7016 45.1953 49.0672 46.2563 47.9109 46.7438C47.9109 46.7438 47.2844 48.3875 48.775 48.3875C48.775 48.3875 50.0641 44.4375 52.5141 47.5453C52.5141 47.5453 52.9813 47.3687 52.2516 45.8141C52.2516 45.8141 53.5391 46.3078 54.0375 48.3438C54.0375 48.3438 54.8328 48.2062 54.9594 46.4359C54.9594 46.4359 55.9578 44.1734 57.5813 46.8375C57.5813 46.8375 55.4266 46.2141 54.8672 48.3875C54.8672 48.3875 55.8859 47.9422 56.5203 48.5656C56.5203 48.5656 56.5844 49.5797 55.9344 49.9719C56.2156 50.5 56.5203 51.0062 56.9453 51.4344C57.0637 51.5446 57.1404 51.6924 57.1623 51.8528C57.1843 52.0131 57.1501 52.176 57.0656 52.3141C58.2125 54.2766 60.3313 56.8891 61.8141 52.7188C61.8141 52.7188 59.8297 53.8453 59.1656 50.7375C59.1656 50.7375 63.1703 51.2469 65.0172 55.2641L66.5719 87.9953L35.4281 79.2609L35.8953 74.6406C36.5422 76.2984 37.3 76.9719 37.3 76.9719C36.4203 69.7609 41.6234 65.1406 41.6234 65.1406C42.6344 60.1906 40.0641 57.9687 37.6812 56.9687L38.9047 44.8625C39.3953 44.2516 39.6844 43.8437 39.6844 43.8437C39.5078 43.2359 39.3359 42.7031 39.1719 42.2156L40.3578 30.4688C41.3547 31.6828 41.4688 32.7859 41.1891 33.7891C39.9063 38.4031 41.5563 39.8172 41.5563 39.8172C42.5578 35.9203 45.9953 35.2984 45.9953 35.2984C45.7984 31.6547 47.9141 27.5125 47.9141 27.5125C45.6125 23.5578 42.3203 26.225 40.5953 28.1125L40.7297 26.7859C41.0828 26.3312 41.4516 25.8359 41.85 25.2703C41.85 25.2703 41.5203 25.0437 40.9219 24.8781L41.9719 14.4797L63.3531 23.3422L63.5031 23.4047L63.7141 27.8984M39.3672 24.7187C38.3016 24.7687 36.9375 25.1359 35.3328 26.2453C35.3328 26.2453 34.5703 33.2484 38.9484 28.8594L38.4594 33.7047C37.8875 31.7922 36.5312 31.1266 36.5312 31.1266C35.2031 31.9297 35.3359 32.9922 35.3359 32.9922C36.5406 33.1734 37.2766 34.6234 37.7094 35.9828C37.4656 36.3562 37.0484 36.7828 36.3281 36.8531C36.3281 36.8531 37.1672 38.1141 37.9797 38.4672L37.8906 39.3359C36 36.5031 35.1813 42.1953 35.1813 42.1953C30.5078 36.9875 36.4219 34.3812 36.4219 34.3812C32.8016 32.8516 31.125 28.4672 31.125 28.4672C30.9484 31.1906 29.8875 31.0703 29.8875 31.0703C21.5906 26.2203 20.0969 34.0313 20.0969 34.0313C21.4141 38.1688 18.5906 38.6422 18.5906 38.6422C21.325 39.1141 22.7359 35.3281 22.7359 35.3281C28.3891 38.1688 25.3875 48.3453 25.3875 48.3453C27.5922 49.6422 28.2109 53.9062 28.2109 53.9062C29.7469 54.3719 31.3203 55.3125 32.4234 56.0578C32.6375 55.8656 32.8578 55.6828 33.0891 55.5125C30.5109 53.6906 30.5063 50.7406 30.5063 50.7406C32.8453 50.7406 35.3328 48.725 37.1281 46.8719L36.1594 56.4703C35.7233 56.3607 35.2815 56.2757 34.8359 56.2156C34.4194 56.4154 34.0281 56.664 33.6703 56.9562L33.8609 57.1047C31.2609 62.1 34.7766 64.1031 35.3594 64.3922L33.8672 79.1578L13.1859 80.775L20.0844 15.4406L40.425 14.2438L39.3672 24.7187M35.1891 81.6297L66.6875 90.4641L66.8281 93.4156L34.8031 85.4469L35.1891 81.6297ZM63.2594 18.3344L63.3781 20.8188L42.2188 12.0484L42.4906 9.35156L62.725 18.1031L63.2594 18.3344M15.4516 10.7594L40.9469 9.07969L40.6641 11.8828L17.9625 13.2172L10.5609 83.3328L33.6313 81.525L33.2469 85.3188L6.66406 87.5797L15.4516 10.7594Z" fill=""/>
<path d="M50.0969 57.214C50.0969 57.214 53.4125 57.8343 52.0859 64.2234C52.0859 64.2234 52.6156 69.2031 55.5234 68.7484C55.5234 68.7484 56.3172 61.5624 60.025 56.0578C60.025 56.0578 58.5219 57.5546 56.8172 52.5906C56.5594 52.7781 56.2094 52.8218 55.9172 52.5312C55.1828 51.7984 54.7391 50.875 54.2609 49.9468C54.1931 49.8133 54.1654 49.663 54.1813 49.514C51.7688 48.614 46.8828 47.7109 46.1906 54.8156C46.1922 54.8156 47.1156 59.7062 50.0969 57.214M48.5781 40.6171C48.8063 43.8171 49.2344 44.789 49.7953 43.4593C50.3594 42.1406 48.5781 40.6171 48.5781 40.6171ZM47.5766 43.6375C47.5766 43.6375 48.5094 43.5 48.2422 42.3265C48.2422 42.3265 47.5766 42.3953 47.5766 43.6375ZM47.2172 37.2046C47.2172 37.2046 44.8656 37.2046 45.6969 38.4062C46.5234 39.6046 47.2172 37.2046 47.2172 37.2046ZM58.9688 66.3562C58.9688 66.3562 59.6875 64.8906 59.6641 62.6312C59.6656 62.6312 57.3781 65.2437 58.9688 66.3562ZM73.7906 57.1718C73.7906 57.1718 72.1344 58.6828 72.4375 60.0593C72.7359 61.4406 74.1891 59.7875 73.7906 57.1718ZM80.4141 62.0578C81.1406 60.7859 76.4344 59.2109 76.4344 59.2109C77.3641 60.589 79.7547 63.1921 80.4141 62.0578ZM75.15 62.3296C76.2547 60.439 71.8063 61.3437 71.8063 61.3437C71.8063 61.3437 74.7203 63.0765 75.15 62.3296ZM76.8984 62.7234C76.8984 62.7234 76.0078 64.7156 72.6984 65.5546C72.6984 65.5546 73.3969 67.1562 72.6984 70.1765C72.6984 70.1765 76.0391 65.914 77.9641 72.0796C77.9641 72.0796 79.6156 72.9765 80.7734 67.3937C80.7734 67.3937 79.3844 65.3828 78.9219 62.5234C78.9234 62.5218 78.4641 66.1859 76.8984 62.7234M77.5516 44.5468C77.7625 44.3703 77.9266 44.3062 77.9266 44.3062C76.3063 41.6859 76.8984 45.4625 76.8984 45.4625C77.0031 45.214 77.1266 45.0234 77.2531 44.8625C77.3391 45.9812 77.0703 47.6484 75.3234 49.2328C75.3219 49.2328 79.0688 47.8203 77.5516 44.5468ZM48.9563 24.9296C49.7734 23.014 47.2047 20.8328 47.2047 20.8328C47.5344 25.4375 48.1453 26.8437 48.9563 24.9296ZM45.7625 25.1812C45.7625 25.1812 47.0922 24.9843 46.7156 23.3C46.7156 23.3 45.7625 23.3953 45.7625 25.1812Z" fill=""/>
</svg>
