<svg width="49" height="44" viewBox="0 0 49 44" fill="" xmlns="http://www.w3.org/2000/svg">
<path d="M24.5 0C18.58 0 13.7813 4.84773 13.7813 10.8281C13.7813 15.663 20.7867 24.475 23.4707 27.6736C24.0143 28.3216 24.9866 28.3216 25.5293 27.6736C28.2133 24.475 35.2188 15.663 35.2188 10.8281C35.2188 4.84773 30.42 0 24.5 0ZM24.5 14.4375C22.5264 14.4375 20.9271 12.8219 20.9271 10.8281C20.9271 8.83437 22.5264 7.21875 24.5 7.21875C26.4736 7.21875 28.0729 8.83437 28.0729 10.8281C28.0729 12.8219 26.4736 14.4375 24.5 14.4375ZM1.7116 18.5582C1.20644 18.7623 0.773392 19.1146 0.468315 19.5697C0.163239 20.0248 0.000120986 20.5618 0 21.1114L0 42.6233C0 43.5961 0.972344 44.2612 1.86642 43.9003L13.6111 38.5V18.4697C12.8591 17.0964 12.244 15.7592 11.8034 14.4805L1.7116 18.5582ZM24.5 30.9091C23.3031 30.9091 22.1708 30.378 21.3941 29.4516C19.7217 27.4579 17.9428 25.1874 16.3333 22.8585V38.4991L32.6667 43.9991V22.8594C31.0572 25.1874 29.2792 27.4588 27.6059 29.4525C26.8292 30.378 25.6969 30.9091 24.5 30.9091ZM47.1336 13.8497L35.3889 19.25V44L47.2884 39.1918C47.7936 38.9878 48.2267 38.6355 48.5318 38.1804C48.8369 37.7253 49 37.1882 49 36.6386V15.1267C49 14.1539 48.0277 13.4888 47.1336 13.8497Z" fill=""/>
</svg>
