<svg width="100" height="100" viewBox="0 0 100 100" fill="" xmlns="http://www.w3.org/2000/svg">
<path d="M18.75 50C24.503 50 29.1667 45.3363 29.1667 39.5833C29.1667 33.8303 24.503 29.1666 18.75 29.1666C12.997 29.1666 8.33334 33.8303 8.33334 39.5833C8.33334 45.3363 12.997 50 18.75 50Z" fill=""/>
<path d="M37.5 33.3333C43.253 33.3333 47.9167 28.6696 47.9167 22.9167C47.9167 17.1637 43.253 12.5 37.5 12.5C31.747 12.5 27.0833 17.1637 27.0833 22.9167C27.0833 28.6696 31.747 33.3333 37.5 33.3333Z" fill=""/>
<path d="M62.5 33.3333C68.253 33.3333 72.9167 28.6696 72.9167 22.9167C72.9167 17.1637 68.253 12.5 62.5 12.5C56.747 12.5 52.0833 17.1637 52.0833 22.9167C52.0833 28.6696 56.747 33.3333 62.5 33.3333Z" fill=""/>
<path d="M81.25 50C87.003 50 91.6667 45.3363 91.6667 39.5833C91.6667 33.8303 87.003 29.1666 81.25 29.1666C75.497 29.1666 70.8333 33.8303 70.8333 39.5833C70.8333 45.3363 75.497 50 81.25 50Z" fill=""/>
<path d="M72.25 61.9167C68.625 57.6667 65.5833 54.0417 61.9167 49.7917C60 47.5417 57.5417 45.2917 54.625 44.2917C54.1667 44.125 53.7083 44 53.25 43.9167C52.2083 43.75 51.0833 43.75 50 43.75C48.9167 43.75 47.7917 43.75 46.7083 43.9583C46.25 44.0417 45.7917 44.1667 45.3333 44.3333C42.4167 45.3333 40 47.5833 38.0417 49.8333C34.4167 54.0833 31.375 57.7083 27.7083 61.9583C22.25 67.4167 15.5417 73.4583 16.7917 81.9167C18 86.1667 21.0417 90.375 26.5 91.5833C29.5417 92.2083 39.25 89.75 49.5833 89.75H50.3333C60.6667 89.75 70.375 92.1667 73.4167 91.5833C78.875 90.375 81.9167 86.125 83.125 81.9167C84.4167 73.4167 77.7083 67.375 72.25 61.9167V61.9167Z" fill=""/>
</svg>
