<svg width="100" height="100" viewBox="0 0 100 100" fill="none" xmlns="http://www.w3.org/2000/svg">
<path d="M75 83.3333H16.6666V25H54.1666V16.6666H16.6666C12.0833 16.6666 8.33331 20.4166 8.33331 25V83.3333C8.33331 87.9166 12.0833 91.6666 16.6666 91.6666H75C79.5833 91.6666 83.3333 87.9166 83.3333 83.3333V45.8333H75V83.3333ZM42.5416 70.125L34.375 60.2916L22.9166 75H68.75L54 55.375L42.5416 70.125ZM83.3333 16.6666V4.16663H75V16.6666H62.5C62.5416 16.7083 62.5 25 62.5 25H75V37.4583C75.0416 37.5 83.3333 37.4583 83.3333 37.4583V25H95.8333V16.6666H83.3333Z" fill="black"/>
</svg>
