<svg width="16" height="20" viewBox="0 0 16 20" fill="none" xmlns="http://www.w3.org/2000/svg">
<path d="M8 0.625C6.0238 0.624901 4.12743 1.40477 2.72304 2.79512C1.31865 4.18546 0.519762 6.0739 0.5 8.05C0.5 13.1875 7.10938 18.9062 7.39063 19.15C7.56044 19.2952 7.77654 19.3751 8 19.3751C8.22346 19.3751 8.43956 19.2952 8.60938 19.15C8.9375 18.9062 15.5 13.1875 15.5 8.05C15.4802 6.0739 14.6813 4.18546 13.277 2.79512C11.8726 1.40477 9.9762 0.624901 8 0.625ZM8 10.9375C7.35103 10.9375 6.71663 10.7451 6.17703 10.3845C5.63744 10.024 5.21687 9.5115 4.96852 8.91193C4.72017 8.31236 4.65519 7.65261 4.7818 7.01611C4.90841 6.37961 5.22091 5.79495 5.67981 5.33606C6.1387 4.87716 6.72336 4.56466 7.35986 4.43805C7.99636 4.31144 8.65611 4.37642 9.25568 4.62477C9.85525 4.87312 10.3677 5.29369 10.7283 5.83329C11.0888 6.37288 11.2812 7.00728 11.2812 7.65625C11.2812 8.52649 10.9355 9.36109 10.3202 9.97644C9.70484 10.5918 8.87024 10.9375 8 10.9375Z" fill="#9C9C9C"/>
</svg>
