<svg width="49" height="48" viewBox="0 0 49 48" fill="none" xmlns="http://www.w3.org/2000/svg">
<path fill-rule="evenodd" clip-rule="evenodd" d="M29.4881 32.284C34.1981 31.184 36.8381 26.998 35.9391 23.257C35.0411 19.517 30.7771 16.944 26.0671 18.045C21.3571 19.145 18.7171 23.331 19.6171 27.072C20.5151 30.812 24.7781 33.385 29.4881 32.284V32.284ZM29.9551 34.229C35.5381 32.924 39.0891 27.809 37.8871 22.802C36.6841 17.796 31.1831 14.796 25.6001 16.101C20.0171 17.405 16.4661 22.521 17.6691 27.527C18.8711 32.533 24.3721 35.533 29.9551 34.229Z" fill="black"/>
<path fill-rule="evenodd" clip-rule="evenodd" d="M32.0281 27.8219C32.2531 27.8219 32.3881 27.6489 32.3881 27.4929C32.3881 27.3379 32.2531 27.1649 32.0281 27.1649C31.8021 27.1649 31.6671 27.3379 31.6671 27.4929C31.6671 27.6489 31.8021 27.8229 32.0271 27.8229L32.0281 27.8219ZM32.0281 29.8219C33.3321 29.8219 34.3881 28.7789 34.3881 27.4929C34.3881 26.2069 33.3321 25.1649 32.0281 25.1649C30.7241 25.1649 29.6671 26.2069 29.6671 27.4929C29.6671 28.7799 30.7241 29.8229 32.0271 29.8229L32.0281 29.8219ZM12.3581 14.6069C12.6515 13.8535 13.1661 13.2065 13.8342 12.751C14.5023 12.2955 15.2925 12.0529 16.1011 12.0549C17.2011 12.0549 18.2011 12.4949 18.9261 13.2089C19.3422 13.0614 19.7806 12.9863 20.2221 12.9869C22.3261 12.9869 24.0561 14.6729 24.0561 16.7809V16.9459L24.0031 17.1009C23.6531 18.1339 23.0731 18.9909 22.2501 19.6299C21.4851 20.7049 20.0451 21.9419 17.6751 21.7219C17.4401 21.6999 17.2911 21.7419 17.1881 21.7959C17.0439 21.879 16.9239 21.9982 16.8401 22.1419C16.5861 22.5379 16.4051 23.1889 16.3331 24.0319C16.2631 24.8519 16.3051 25.7479 16.4081 26.5459C16.4881 27.1649 16.6001 27.6809 16.7061 28.0319C17.2254 28.3956 17.6495 28.879 17.9424 29.4412C18.2354 30.0034 18.3886 30.628 18.3891 31.2619C18.3891 32.0059 18.1811 32.7019 17.8211 33.2969C18.1851 33.9099 18.3891 34.6409 18.3891 35.4109C18.3891 36.0309 18.2571 36.6239 18.0181 37.1499C18.2541 37.6059 18.3881 38.1239 18.3881 38.6719C18.3881 40.5229 16.8711 42.0009 15.0281 42.0009C13.1851 42.0009 11.6671 40.5229 11.6671 38.6709C11.6671 38.1239 11.8011 37.6059 12.0381 37.1499C11.7916 36.6034 11.6651 36.0105 11.6671 35.4109C11.6671 35.0269 11.7171 34.6539 11.8131 34.3009C11.2969 33.8756 10.8976 33.326 10.6527 32.7036C10.4077 32.0813 10.3253 31.4069 10.4131 30.7439C8.89407 30.1839 7.80307 28.7389 7.80307 27.0269C7.80307 26.5109 7.90307 26.0169 8.08507 25.5639C7.35429 24.8273 6.94449 23.8316 6.94507 22.7939C6.94507 21.3939 7.67507 20.1739 8.76807 19.4689C8.6974 19.1708 8.66182 18.8654 8.66207 18.5589C8.66207 16.4609 10.3021 14.7629 12.3581 14.6069V14.6069ZM16.1011 14.0549C15.0731 14.0549 14.2401 14.8089 14.1131 15.7609L13.9791 16.7689L12.9741 16.6179C12.8724 16.6027 12.7698 16.595 12.6671 16.5949C11.5471 16.5949 10.6621 17.4869 10.6621 18.5589C10.6621 18.8969 10.7481 19.2129 10.9001 19.4889L11.4881 20.5559L10.3281 20.9259C9.92923 21.0502 9.58021 21.298 9.33143 21.6336C9.08266 21.9692 8.947 22.3752 8.94407 22.7929C8.94407 23.4889 9.31407 24.1059 9.88407 24.4569L10.8011 25.0219L10.1701 25.8949C9.93807 26.2149 9.80307 26.6049 9.80307 27.0269C9.80307 28.0689 10.6391 28.9409 11.7141 28.9889L13.2301 29.0569L12.5701 30.4229C12.4437 30.6846 12.3784 30.9714 12.3791 31.2619C12.3791 32.0199 12.8191 32.6879 13.4791 33.0149L14.4061 33.4749L13.9161 34.3849C13.7621 34.6709 13.6661 35.0219 13.6661 35.4109C13.6661 35.8879 13.8101 36.3069 14.0261 36.6169L14.4641 37.2449L13.9741 37.8319C13.7756 38.0668 13.6668 38.3644 13.6671 38.6719C13.6671 39.3919 14.2631 40.0009 15.0271 40.0009C15.7931 40.0009 16.3891 39.3929 16.3891 38.6709C16.3896 38.3636 16.2812 38.066 16.0831 37.8309L15.5911 37.2449L16.0291 36.6179C16.2461 36.3079 16.3891 35.8879 16.3891 35.4109C16.3891 34.8109 16.1631 34.3089 15.8551 33.9949L15.1781 33.3029L15.8481 32.6029C16.1861 32.2499 16.3881 31.7789 16.3881 31.2619C16.3881 30.5399 15.9911 29.9019 15.3851 29.5589L15.0831 29.3889L14.9531 29.0689C14.7281 28.5209 14.5401 27.6919 14.4251 26.8019C14.2951 25.8275 14.267 24.8422 14.3411 23.8619C14.4231 22.8919 14.6441 21.8579 15.1591 21.0589C15.4295 20.6244 15.8087 20.268 16.2591 20.0249C16.7521 19.7723 17.3084 19.6697 17.8591 19.7299C19.3671 19.8699 20.2041 19.0979 20.6871 18.3729L20.7871 18.2229L20.9351 18.1169C21.4241 17.7639 21.7981 17.2799 22.0491 16.6259C21.9691 15.7179 21.1931 14.9859 20.2221 14.9859C19.8421 14.9859 19.4931 15.0989 19.2021 15.2889L18.3521 15.8489L17.8081 14.9879C17.6256 14.7008 17.3733 14.4646 17.0748 14.3014C16.7763 14.1383 16.4413 14.0535 16.1011 14.0549V14.0549ZM31.7041 17.3269L31.7061 17.3199L31.7151 17.2829L31.7561 17.1229C32.0008 16.2397 32.3269 15.381 32.7301 14.5579C33.4841 13.0309 34.6101 11.4819 36.1761 10.7879C36.2963 10.7358 36.405 10.6602 36.4959 10.5657C36.5867 10.4712 36.6579 10.3596 36.7052 10.2373C36.7526 10.1151 36.7752 9.98465 36.7717 9.85361C36.7683 9.72256 36.7388 9.59351 36.6851 9.47394C36.5736 9.23258 36.3714 9.04494 36.1224 8.95171C35.8734 8.85848 35.5977 8.86718 35.3551 8.97594C33.1381 9.95894 31.7431 12.0259 30.9201 13.6939C30.4604 14.6321 30.0891 15.6109 29.8111 16.6179C29.7882 16.7026 29.7665 16.7876 29.7461 16.8729L29.7421 16.8899L29.7401 16.8969L30.7221 17.1129L29.7401 16.8979C29.7114 17.0258 29.7085 17.1581 29.7314 17.2872C29.7543 17.4162 29.8026 17.5394 29.8735 17.6497C29.9443 17.7599 30.0364 17.855 30.1443 17.9293C30.2522 18.0037 30.3738 18.0559 30.5021 18.0829C30.7616 18.1405 31.0333 18.0933 31.2583 17.9518C31.4834 17.8103 31.6435 17.5858 31.7041 17.3269V17.3269Z" fill="black"/>
<path fill-rule="evenodd" clip-rule="evenodd" d="M6.64504 6.06499C6.76782 6.01835 6.89859 5.99636 7.02988 6.00027C7.16116 6.00418 7.29039 6.03391 7.41018 6.08777C7.52997 6.14163 7.63798 6.21857 7.72804 6.31417C7.81809 6.40978 7.88843 6.52219 7.93504 6.64499C8.48004 8.07999 9.73204 8.79499 11.073 8.79499C12.423 8.79499 13.841 8.06199 14.608 6.54799C14.6879 6.39034 14.8081 6.25667 14.9564 6.16059C15.1047 6.06451 15.2759 6.00945 15.4524 6.00102C15.6289 5.99258 15.8045 6.03107 15.9613 6.11258C16.1181 6.19408 16.2505 6.31568 16.345 6.46499C17.402 8.13299 18.657 8.79499 19.75 8.79499C20.843 8.79499 22.098 8.13299 23.155 6.46499C23.2496 6.31568 23.382 6.19408 23.5388 6.11258C23.6956 6.03107 23.8712 5.99258 24.0477 6.00102C24.2242 6.00945 24.3953 6.06451 24.5437 6.16059C24.692 6.25667 24.8122 6.39034 24.892 6.54799C25.692 8.12599 26.91 8.79499 28.072 8.79499C29.256 8.79499 30.618 8.10099 31.655 6.46499C31.7452 6.32248 31.87 6.20509 32.0177 6.12375C32.1655 6.04241 32.3314 5.99976 32.5 5.99976C32.6687 5.99976 32.8346 6.04241 32.9823 6.12375C33.1301 6.20509 33.2549 6.32248 33.345 6.46499C34.402 8.13299 35.657 8.79499 36.75 8.79499C37.843 8.79499 39.098 8.13299 40.155 6.46499C40.2969 6.24088 40.522 6.08232 40.7808 6.02418C41.0396 5.96605 41.3109 6.0131 41.535 6.15499C41.7591 6.29688 41.9177 6.52199 41.9758 6.78079C42.034 7.03959 41.9869 7.31088 41.845 7.53499C40.541 9.59299 38.726 10.795 36.75 10.795C35.168 10.795 33.69 10.025 32.494 8.66199C31.252 10.041 29.682 10.795 28.073 10.795C26.497 10.795 25.027 10.071 23.939 8.73799C22.755 10.053 21.302 10.794 19.75 10.794C18.191 10.794 16.733 10.047 15.546 8.72099C14.9937 9.36825 14.3081 9.88857 13.5361 10.2464C12.7641 10.6041 11.9239 10.7909 11.073 10.794C8.99004 10.794 6.93604 9.64599 6.06504 7.35499C6.0184 7.23221 5.99641 7.10144 6.00032 6.97015C6.00423 6.83887 6.03396 6.70964 6.08782 6.58985C6.14168 6.47005 6.21861 6.36205 6.31422 6.27199C6.40983 6.18193 6.52224 6.1116 6.64504 6.06499V6.06499Z" fill="black"/>
</svg>
