<svg width="100" height="100" viewBox="0 0 100 100" fill="" xmlns="http://www.w3.org/2000/svg">
<path d="M86.2917 33.25L66.7917 13.75C66 12.9583 64.9167 12.5 63.8333 12.5H36.1667C35.0833 12.5 34 12.9583 33.25 13.7083L13.7083 33.25C12.9583 34 12.5 35.0833 12.5 36.1667V63.7917C12.5 64.9167 12.9583 65.9583 13.7083 66.75L33.2083 86.25C34 87.0417 35.0833 87.5 36.1667 87.5H63.7917C64.9167 87.5 65.9583 87.0417 66.75 86.2917L86.25 66.7917C86.638 66.4037 86.9448 65.9422 87.1523 65.4343C87.3598 64.9263 87.4638 64.382 87.4583 63.8333V36.1667C87.5 35.0833 87.0417 34 86.2917 33.25V33.25ZM79.1667 62.0833L62.0833 79.1667H37.9167L20.8333 62.0833V37.9167L37.9167 20.8333H62.0833L79.1667 37.9167V62.0833V62.0833Z" fill=""/>
<path d="M50 70.8333C52.3012 70.8333 54.1666 68.9679 54.1666 66.6667C54.1666 64.3655 52.3012 62.5 50 62.5C47.6988 62.5 45.8333 64.3655 45.8333 66.6667C45.8333 68.9679 47.6988 70.8333 50 70.8333Z" fill=""/>
<path d="M50 29.1666C47.7083 29.1666 45.8333 31.0416 45.8333 33.3333V54.1666C45.8333 56.4583 47.7083 58.3333 50 58.3333C52.2916 58.3333 54.1666 56.4583 54.1666 54.1666V33.3333C54.1666 31.0416 52.2916 29.1666 50 29.1666Z" fill=""/>
</svg>
