<svg width="17" height="17" viewBox="0 0 17 17" fill="none" xmlns="http://www.w3.org/2000/svg">
<path d="M11.7476 10.843C12.7159 9.52169 13.1496 7.88349 12.9619 6.25615C12.7742 4.62881 11.979 3.13234 10.7353 2.06613C9.49168 0.999923 7.89132 0.442605 6.2544 0.505679C4.61749 0.568752 3.06475 1.24756 1.90684 2.40631C0.748919 3.56505 0.0712175 5.11828 0.00931572 6.75524C-0.0525861 8.39219 0.505876 9.99216 1.57297 11.235C2.64007 12.4779 4.13711 13.2721 5.76459 13.4586C7.39206 13.6451 9.02995 13.2102 10.3506 12.241H10.3496C10.3796 12.281 10.4116 12.319 10.4476 12.356L14.2976 16.206C14.4851 16.3936 14.7394 16.4991 15.0047 16.4992C15.27 16.4993 15.5244 16.394 15.7121 16.2065C15.8997 16.019 16.0052 15.7646 16.0053 15.4994C16.0054 15.2341 15.9001 14.9796 15.7126 14.792L11.8626 10.942C11.8268 10.9058 11.7884 10.8724 11.7476 10.842V10.843ZM12.0056 6.999C12.0056 7.72127 11.8633 8.43647 11.5869 9.10376C11.3105 9.77105 10.9054 10.3774 10.3947 10.8881C9.88393 11.3988 9.27762 11.8039 8.61033 12.0803C7.94304 12.3567 7.22784 12.499 6.50557 12.499C5.7833 12.499 5.0681 12.3567 4.40081 12.0803C3.73352 11.8039 3.1272 11.3988 2.61648 10.8881C2.10576 10.3774 1.70063 9.77105 1.42423 9.10376C1.14783 8.43647 1.00557 7.72127 1.00557 6.999C1.00557 5.54031 1.58503 4.14136 2.61648 3.10991C3.64793 2.07846 5.04688 1.499 6.50557 1.499C7.96426 1.499 9.3632 2.07846 10.3947 3.10991C11.4261 4.14136 12.0056 5.54031 12.0056 6.999Z" fill="black"/>
</svg>
