<svg width="48" height="48" viewBox="0 0 48 48" fill="" xmlns="http://www.w3.org/2000/svg">
<path d="M8.88803 19.43C8.88803 19.43 11.072 21.695 12.523 21.924C14.5041 22.1662 16.5138 21.9988 18.4276 21.4321C20.3413 20.8655 22.1182 19.9117 23.648 18.63C25.96 16.681 26.93 14.262 27.657 10.493C26.9066 10.3245 26.1849 10.0469 25.515 9.669C24.7101 9.13127 24.1125 8.33513 23.821 7.412C26.394 7.302 27.881 8.805 30.05 8.252C30.269 7.2 29.714 5.992 28.738 4.653C30.5582 5.5631 32.1732 6.83545 33.484 8.392C33.4523 6.96953 32.9438 5.59892 32.04 4.5C33.909 5.29569 35.4003 6.77985 36.205 8.645C37.027 8.931 37.438 7.934 40.172 7.748C39.3037 9.31807 38.1531 10.7144 36.778 11.867C36.748 12.7057 36.9598 13.5353 37.388 14.257C37.737 15.127 38.606 15.784 38.768 16.707C38.8541 17.0561 38.8682 17.419 38.8094 17.7737C38.7506 18.1284 38.6201 18.4674 38.426 18.77C37.916 19.403 37.563 19.7 36.159 19.673C36.0729 20.1191 36.0983 20.5795 36.233 21.0133C36.3677 21.4472 36.6075 21.8411 36.931 22.16C36.5883 22.1825 36.2454 22.1189 35.9335 21.9751C35.6216 21.8312 35.3506 21.6117 35.1452 21.3364C34.9398 21.0611 34.8064 20.7389 34.7573 20.3989C34.7082 20.059 34.7449 19.7122 34.864 19.39L33.76 18.577L29.753 43.5H28.277L28.507 30.687C26.46 34.514 25.978 39.05 25.33 43.5H23.532L24.004 34.524C23.8925 34.0285 23.6768 33.5625 23.3712 33.1568C23.0657 32.7511 22.6774 32.4151 22.232 32.171C20.901 31.421 19.193 31.579 17.67 31.707C15.8097 31.8033 13.9928 32.3042 12.346 33.175C11.9592 33.4106 11.6325 33.7331 11.392 34.117L11.419 43.5H9.55703L7.82703 33.243C7.87976 33.0106 7.94519 32.7812 8.02303 32.556C8.31703 31.819 9.00303 31.356 9.12803 30.448L10.143 23.081C10.235 22.417 8.89003 19.431 8.89003 19.431L8.88803 19.43Z" stroke="" stroke-linecap="round" stroke-linejoin="round"/>
<path d="M12.889 32.965L15.152 43.518H16.926L15.97 31.969" stroke="" stroke-linecap="round" stroke-linejoin="round"/>
<path d="M32.346 12.5339C32.7503 12.5339 33.078 12.2062 33.078 11.8019C33.078 11.3977 32.7503 11.0699 32.346 11.0699C31.9417 11.0699 31.614 11.3977 31.614 11.8019C31.614 12.2062 31.9417 12.5339 32.346 12.5339Z" fill=""/>
<path d="M37.303 17.89C37.7172 17.89 38.053 17.5542 38.053 17.14C38.053 16.7258 37.7172 16.39 37.303 16.39C36.8888 16.39 36.553 16.7258 36.553 17.14C36.553 17.5542 36.8888 17.89 37.303 17.89Z" fill=""/>
</svg>
