<svg width="256" height="256" viewBox="0 0 256 256" fill="" xmlns="http://www.w3.org/2000/svg">
<path d="M148 80C148 78.9392 148.421 77.9217 149.172 77.1716C149.922 76.4214 150.939 76 152 76H248C249.061 76 250.078 76.4214 250.828 77.1716C251.579 77.9217 252 78.9392 252 80C252 81.0609 251.579 82.0783 250.828 82.8284C250.078 83.5786 249.061 84 248 84H152C150.939 84 149.922 83.5786 149.172 82.8284C148.421 82.0783 148 81.0609 148 80ZM248 124H152C150.939 124 149.922 124.421 149.172 125.172C148.421 125.922 148 126.939 148 128C148 129.061 148.421 130.078 149.172 130.828C149.922 131.579 150.939 132 152 132H248C249.061 132 250.078 131.579 250.828 130.828C251.579 130.078 252 129.061 252 128C252 126.939 251.579 125.922 250.828 125.172C250.078 124.421 249.061 124 248 124ZM248 172H176C174.939 172 173.922 172.421 173.172 173.172C172.421 173.922 172 174.939 172 176C172 177.061 172.421 178.078 173.172 178.828C173.922 179.579 174.939 180 176 180H248C249.061 180 250.078 179.579 250.828 178.828C251.579 178.078 252 177.061 252 176C252 174.939 251.579 173.922 250.828 173.172C250.078 172.421 249.061 172 248 172ZM145.9 191C146.12 192.032 145.944 193.109 145.407 194.016C144.87 194.924 144.01 195.597 143 195.9H142C141.113 195.889 140.253 195.591 139.55 195.05C138.847 194.509 138.338 193.755 138.1 192.9C134.778 180.016 127.268 168.602 116.751 160.452C106.233 152.302 93.3053 147.88 80 147.88C66.6947 147.88 53.7667 152.302 43.2493 160.452C32.732 168.602 25.2218 180.016 21.9 192.9C21.6179 193.924 20.9495 194.798 20.0355 195.339C19.1215 195.88 18.0333 196.045 17 195.8C15.9896 195.497 15.1303 194.824 14.5929 193.916C14.0556 193.009 13.8796 191.932 14.1 190.9C16.9793 179.671 22.6936 169.37 30.6956 160.983C38.6975 152.596 48.7189 146.404 59.8 143C51.039 138.473 44.053 131.133 39.9629 122.16C35.8727 113.187 34.9157 103.099 37.2453 93.5167C39.575 83.9342 45.0562 75.4121 52.8094 69.3179C60.5627 63.2238 70.1384 59.9109 80 59.9109C89.8616 59.9109 99.4373 63.2238 107.191 69.3179C114.944 75.4121 120.425 83.9342 122.755 93.5167C125.084 103.099 124.127 113.187 120.037 122.16C115.947 131.133 108.961 138.473 100.2 143C111.293 146.413 121.322 152.62 129.325 161.025C137.328 169.431 143.036 179.753 145.9 191V191ZM80 140C87.1201 140 94.0804 137.889 100.001 133.933C105.921 129.977 110.535 124.355 113.26 117.777C115.984 111.198 116.697 103.96 115.308 96.9768C113.919 89.9934 110.491 83.5789 105.456 78.5442C100.421 73.5095 94.0066 70.0808 87.0233 68.6917C80.0399 67.3027 72.8015 68.0156 66.2234 70.7404C59.6453 73.4651 54.0228 78.0793 50.0671 83.9995C46.1114 89.9197 44 96.8799 44 104C44 113.548 47.7928 122.705 54.5442 129.456C61.2955 136.207 70.4522 140 80 140Z" fill=""/>
</svg>
